# xmcd CD database file
#
# Track frame offsets:
#	150
#	24770
#	47032
#	66415
#	88542
#	110445
#	133780
#	152437
#	176832
#	199045
#	218855
#	245042
#	266822
#	286270
#	305380
#	339895
#
# Disc length: 4795 seconds
#
# Revision: 7
# Processed by: cddbd v1.5.2PL0 Copyright (c) Steve Scherf et al.
# Submitted via: CDex 1.70beta3
#
DISCID=e412b910
DTITLE=Every Little Thing - Every Best Single 2
DYEAR=2003
DGENRE=JPop
TTITLE0=Pray
TTITLE1=sure
TTITLE2=Rescue me
TTITLE3=愛のカケラ
TTITLE4=fragile
TTITLE5=Graceful World
TTITLE6=jump
TTITLE7=キヲク
TTITLE8=ささやかな祈り
TTITLE9=UNSPEAKABLE
TTITLE10=nostalgia
TTITLE11=Grip!
TTITLE12=ファンダメンタル・ラブ
TTITLE13=For the moment (Acoustic Version)
TTITLE14=出会った頃のように (Acoustic Version)
TTITLE15=DATA
EXTD=YEAR: 2003
EXTT0=
EXTT1=
EXTT2=
EXTT3=
EXTT4=
EXTT5=
EXTT6=
EXTT7=
EXTT8=
EXTT9=
EXTT10=
EXTT11=
EXTT12=
EXTT13=
EXTT14=
EXTT15=
PLAYORDER=
